<?xml version="1.0" standalone="no"?>
<!DOCTYPE svg PUBLIC "-//W3C//DTD SVG 20010904//EN"
 "http://www.w3.org/TR/2001/REC-SVG-20010904/DTD/svg10.dtd">
<svg version="1.0" xmlns="http://www.w3.org/2000/svg"
 width="512.000000pt" height="253.000000pt" viewBox="0 0 512.000000 253.000000"
 preserveAspectRatio="xMidYMid meet">

<g transform="translate(0.000000,253.000000) scale(0.100000,-0.100000)"
fill="#000000" stroke="none">
<path d="M3790 2488 c-63 -33 -102 -86 -108 -147 -10 -111 -25 -91 381 -498
l371 -373 -2149 -2 -2150 -3 -38 -24 c-21 -13 -50 -42 -65 -64 -23 -34 -27
-52 -27 -107 0 -55 4 -73 27 -107 15 -22 44 -51 65 -64 l38 -24 2150 -3 2149
-2 -371 -373 c-406 -407 -391 -387 -381 -498 12 -122 157 -204 270 -151 43 20
1104 1062 1140 1120 33 52 33 152 0 204 -36 58 -1097 1100 -1140 1120 -51 24
-109 22 -162 -4z"/>
</g>
</svg>
