<?xml version="1.0" standalone="no"?>
<!DOCTYPE svg PUBLIC "-//W3C//DTD SVG 20010904//EN"
 "http://www.w3.org/TR/2001/REC-SVG-20010904/DTD/svg10.dtd">
<svg version="1.0" xmlns="http://www.w3.org/2000/svg"
 width="1152.000000pt" height="606.000000pt" viewBox="0 0 1152.000000 606.000000"
 preserveAspectRatio="xMidYMid meet">
<metadata>
Created by potrace 1.16, written by Peter Selinger 2001-2019
</metadata>
<g transform="translate(0.000000,606.000000) scale(0.100000,-0.100000)"
fill="#2f1ce4" stroke="none">
<path d="M11476 6004 c-92 -134 -306 -392 -545 -659 -169 -188 -689 -709 -881
-882 -1072 -963 -2146 -1584 -3160 -1827 -586 -141 -1110 -152 -1695 -36 -82
16 -193 36 -245 44 -548 86 -1098 62 -1624 -70 -1027 -257 -2014 -925 -2860
-1934 -150 -179 -466 -609 -466 -635 0 -3 2592 -5 5760 -5 l5760 0 0 3030 c0
1667 -1 3030 -2 3030 -2 -1 -20 -26 -42 -56z"/>
</g>
</svg>
